<?xml version="1.0" encoding="iso-8859-1"?>
<!-- Uploaded to: SVG Repo, www.svgrepo.com, Generator: SVG Repo Mixer Tools -->
<svg fill="#000000" height="800px" width="800px" version="1.1" id="Layer_1" xmlns="http://www.w3.org/2000/svg" xmlns:xlink="http://www.w3.org/1999/xlink" 
	 viewBox="0 0 512 512" xml:space="preserve">
<g>
	<g>
		<path d="M16.912,0v63.3h374.565V0H16.912z M60.912,43.238H37.726V20.052h23.186V43.238z M102.635,43.238H79.449V20.052h23.186
			V43.238z"/>
	</g>
</g>
<g>
	<g>
		<path d="M16.912,160.893v63.3h374.565v-63.3H16.912z M60.912,204.131H37.726v-23.186h23.186V204.131z M102.635,204.131H79.449
			v-23.186h23.186V204.131z"/>
	</g>
</g>
<g>
	<g>
		<polygon points="364.695,94.647 349.022,94.647 59.366,94.647 43.692,94.647 28.019,94.647 28.019,129.546 43.692,129.546 
			59.366,129.546 349.022,129.546 364.695,129.546 380.369,129.546 380.369,94.647 		"/>
	</g>
</g>
<g>
	<g>
		<path d="M16.912,322.435v62.652h237.756c3.636-22.862,13.03-44.429,27.272-62.652H16.912z M60.912,366.54H37.726v-23.186h23.186
			V366.54z M102.635,366.54H79.449v-23.186h23.186V366.54z"/>
	</g>
</g>
<g>
	<g>
		<path d="M28.019,255.54v34.9H317.55v0c6.531-4.075,13.396-7.576,20.564-10.501c13.542-5.517,27.711-8.788,42.256-9.759V255.54
			H28.019z"/>
	</g>
</g>
<g>
	<g>
		<path d="M253.738,421.282c-0.178-1.609-0.313-3.229-0.428-4.848H28.019v66.247h248.08
			C263.842,464.394,256.089,443.298,253.738,421.282z"/>
	</g>
</g>
<g>
	<g>
		<path d="M389.689,301.213c-14.064,0-27.481,2.759-39.748,7.753c-10.647,4.347-20.438,10.376-29.017,17.774
			c-0.24,0.198-0.481,0.408-0.711,0.616c-22.016,19.32-35.913,47.658-35.913,79.245c0,3.323,0.157,6.604,0.47,9.833
			c0.031,0.502,0.084,1.003,0.136,1.505c2.664,24.91,14.002,47.208,30.929,63.843c0.313,0.303,0.627,0.606,0.94,0.899
			C335.71,500.851,361.394,512,389.689,512c58.211,0,105.399-47.188,105.399-105.399
			C495.088,348.39,447.901,301.213,389.689,301.213z M418.079,457.153L389.7,428.774l-26.979,26.969l-22.162-22.173l26.969-26.969
			l-28.39-28.39l22.162-22.162l28.39,28.39l26.969-26.969l22.173,22.162l-26.969,26.979l28.379,28.379L418.079,457.153z"/>
	</g>
</g>
</svg>