<svg width="281" height="281" viewBox="0 0 281 281" fill="none" xmlns="http://www.w3.org/2000/svg">
<circle cx="140.5" cy="140.5" r="140.5" fill="url(#paint0_linear_3_32)"/>
<circle cx="140.5" cy="140.5" r="140.5" fill="url(#paint1_radial_3_32)" fill-opacity="0.2"/>
<circle cx="140.5" cy="140.5" r="140.5" fill="url(#paint2_radial_3_32)" fill-opacity="0.2"/>
<path d="M113.25 175.219L113.812 176.031C111.625 177.677 108.635 178.969 104.844 179.906C104.948 177.802 106.188 174.177 108.562 169.031C105.875 172.198 103.104 174.823 100.25 176.906C97.4167 178.99 95.1667 180.031 93.5 180.031C92.0417 180.031 91.3125 179.104 91.3125 177.25C91.3125 174.104 92.7188 170.708 95.5312 167.062C98.3438 163.396 101.875 160.385 106.125 158.031C110.917 155.344 115.688 154 120.438 154C121.104 154 121.438 154.25 121.438 154.75C121.438 155.167 121.125 155.958 120.5 157.125C119.083 156.875 117.708 156.75 116.375 156.75C110.021 156.75 104.552 159.219 99.9688 164.156C96.5938 167.781 94.9062 171.375 94.9062 174.938C94.9062 176.604 95.5208 177.438 96.75 177.438C97.7917 177.438 99.2917 176.542 101.25 174.75C103.208 172.938 104.958 170.844 106.5 168.469C108.625 165.177 110.073 161.76 110.844 158.219C111.74 158.76 112.188 159.76 112.188 161.219C112.188 163.24 111.167 165.562 109.125 168.188C110.125 168.104 111.365 167.812 112.844 167.312L112.594 167.844C110.615 172.281 109.625 174.875 109.625 175.625C109.625 176.229 109.906 176.51 110.469 176.469C110.99 176.427 111.917 176.01 113.25 175.219ZM137.406 175.562L137.969 176.375C135.927 177.479 133.281 178.615 130.031 179.781L129.25 180.062C129.479 176.812 131.729 170.625 136 161.5C136.667 160.083 137 159.125 137 158.625C137 157.979 136.76 157.656 136.281 157.656C135.74 157.656 134.781 158.198 133.406 159.281C132.031 160.365 130.698 161.635 129.406 163.094C127.448 165.26 125.49 167.812 123.531 170.75C121.594 173.667 120.156 176.208 119.219 178.375C117.76 178.562 116.406 178.979 115.156 179.625L115.5 178.812C116.917 175.5 118.229 172.302 119.438 169.219L123.094 159.906L126.812 150.625C128.604 146.062 129.5 143.25 129.5 142.188C129.5 141.458 129.167 141.094 128.5 141.094C128.188 141.094 127.573 141.25 126.656 141.562L126.25 141.719L125.938 140.812C128.417 139.979 130.906 138.885 133.406 137.531L134 137.188C134.021 137.583 134.031 137.875 134.031 138.062C134.031 139.604 133.51 141.885 132.469 144.906C131.427 147.906 129.344 153.156 126.219 160.656L122.844 168.812L122.469 169.688L123 169.031C130.979 159.156 136.677 154.219 140.094 154.219C141.094 154.219 141.594 154.719 141.594 155.719C141.594 156.448 141.219 157.635 140.469 159.281L138.531 163.562C135.26 170.771 133.625 174.948 133.625 176.094C133.625 176.552 133.865 176.781 134.344 176.781C134.906 176.781 135.833 176.427 137.125 175.719L137.406 175.562ZM171.344 175.312L171.844 176.125C169.635 177.708 167.01 179 163.969 180C164.302 175.458 166.438 169.146 170.375 161.062L171.281 159.125C171.448 158.812 171.531 158.552 171.531 158.344C171.531 157.844 171.312 157.594 170.875 157.594C169.979 157.594 168.208 158.927 165.562 161.594C163.646 163.51 161.833 165.958 160.125 168.938C158.438 171.917 157.062 175.021 156 178.25C154.771 178.562 153.302 179.146 151.594 180L151.938 179.125L153.812 174.531C155.188 171.135 156.438 167.781 157.562 164.469C158.688 161.156 159.25 159.146 159.25 158.438C159.25 157.833 158.969 157.531 158.406 157.531C157.698 157.531 156.521 158.375 154.875 160.062C153.229 161.729 151.698 163.646 150.281 165.812C147.823 169.604 145.688 173.802 143.875 178.406C143.604 178.49 143.448 178.542 143.406 178.562L141.75 179.156C141.083 179.385 140.396 179.646 139.688 179.938C140.188 178.875 141.167 176.583 142.625 173.062L145.062 167.188C146.896 162.729 147.844 159.948 147.906 158.844C147.948 158.094 147.646 157.719 147 157.719C146.583 157.719 145.958 157.906 145.125 158.281L144.75 157.281C146.562 156.573 148.896 155.333 151.75 153.562L152.438 153.125C152.5 153.604 152.531 154.01 152.531 154.344C152.531 156.115 151.448 159.635 149.281 164.906C155.073 157.51 159.562 153.812 162.75 153.812C163.688 153.812 164.156 154.312 164.156 155.312C164.156 156.812 163.104 160.146 161 165.312C163.396 162.167 165.99 159.458 168.781 157.188C171.594 154.917 173.75 153.781 175.25 153.781C176.125 153.781 176.562 154.219 176.562 155.094C176.562 155.698 175.771 157.688 174.188 161.062C170.375 169.25 168.469 174 168.469 175.312C168.469 175.875 168.74 176.156 169.281 176.156C169.677 176.156 170.365 175.875 171.344 175.312ZM198.031 156.938C196.927 156.833 196.01 156.781 195.281 156.781C189.802 156.781 185.604 158.885 182.688 163.094C181.542 164.76 180.573 166.677 179.781 168.844C178.99 170.99 178.594 172.792 178.594 174.25C178.594 175.271 178.885 176.115 179.469 176.781C180.073 177.427 180.833 177.75 181.75 177.75C183.917 177.75 186.312 176.01 188.938 172.531C191.562 169.052 192.875 165.865 192.875 162.969C192.875 162.323 192.698 161.781 192.344 161.344C192.01 160.885 191.604 160.656 191.125 160.656C189.458 160.656 187.865 162.323 186.344 165.656C186.24 165.24 186.188 164.875 186.188 164.562C186.188 163.271 186.99 161.917 188.594 160.5C190.198 159.083 191.719 158.375 193.156 158.375C194.115 158.375 194.927 158.771 195.594 159.562C196.26 160.333 196.594 161.281 196.594 162.406C196.594 166.177 194.188 170.177 189.375 174.406C185.25 178.073 181.823 179.906 179.094 179.906C177.906 179.906 176.917 179.479 176.125 178.625C175.354 177.771 174.969 176.698 174.969 175.406C174.969 172.552 175.958 169.573 177.938 166.469C179.938 163.344 182.562 160.656 185.812 158.406C187.604 157.177 189.552 156.167 191.656 155.375C193.781 154.583 195.583 154.188 197.062 154.188C197.979 154.188 198.438 154.594 198.438 155.406C198.438 155.719 198.302 156.229 198.031 156.938ZM222.156 154.219C220.698 157.01 218.927 160.938 216.844 166C214.76 171.062 213.698 174.01 213.656 174.844C213.635 175.49 213.99 175.812 214.719 175.812C215.281 175.812 216.104 175.604 217.188 175.188L217.594 176.031C216.073 176.823 213.562 177.885 210.062 179.219L209.219 179.531C209.76 176.135 210.802 172.51 212.344 168.656C209.656 172.052 207.104 174.719 204.688 176.656C202.292 178.573 200.312 179.531 198.75 179.531C197.375 179.531 196.688 178.812 196.688 177.375C196.688 175.646 197.969 172.094 200.531 166.719L203.031 161.469C203.802 159.844 204.208 158.677 204.25 157.969C204.292 157.281 203.938 156.938 203.188 156.938C202.854 156.938 202.271 157.062 201.438 157.312L201.188 156.375L201.688 156.219C204.604 155.365 207.031 154.521 208.969 153.688C208.969 155.354 208.042 158.094 206.188 161.906L203.469 167.469C201.385 171.74 200.344 174.354 200.344 175.312C200.344 176.208 200.74 176.656 201.531 176.656C203.552 176.656 206.229 174.552 209.562 170.344C212.896 166.115 215.552 161.458 217.531 156.375L217.938 155.375C219.146 155.25 220.552 154.865 222.156 154.219ZM252.281 137.156C252.198 138.531 251.219 141.583 249.344 146.312L247.031 152.125L246.125 154.375C247.375 154.875 248.052 155.896 248.156 157.438C247.281 157.146 246.281 156.969 245.156 156.906L244.938 157.469L240.906 167.719C239.031 172.49 238.094 175.208 238.094 175.875C238.094 176.458 238.375 176.75 238.938 176.75C239.521 176.75 240.479 176.344 241.812 175.531C241.875 175.49 241.979 175.427 242.125 175.344L242.719 176.094C240.469 177.656 237.323 179.01 233.281 180.156L233.531 179.125C234.198 176.625 235.292 173.5 236.812 169.75C237.292 168.604 237.729 167.531 238.125 166.531L241.625 157.406L241.938 156.719C239.688 156.719 237.26 157.323 234.656 158.531C232.052 159.719 229.771 161.271 227.812 163.188C224.146 166.833 222.312 170.583 222.312 174.438C222.312 176.208 222.958 177.094 224.25 177.094C225.521 177.094 227.104 176.219 229 174.469C230.917 172.719 232.604 170.594 234.062 168.094C235.438 165.719 236.562 163.062 237.438 160.125C237.792 160.896 237.969 161.719 237.969 162.594C237.969 164.323 237.219 166.333 235.719 168.625C234.24 170.917 232.25 173.135 229.75 175.281C226.021 178.448 223.115 180.031 221.031 180.031C219.448 180.031 218.656 179.042 218.656 177.062C218.656 175.333 219.208 173.344 220.312 171.094C221.438 168.844 222.927 166.698 224.781 164.656C229.969 158.969 236 155.542 242.875 154.375L243.719 152.219L245.969 146.312C246.635 144.604 246.979 143.438 247 142.812C247.042 141.917 246.594 141.469 245.656 141.469C245.115 141.469 244.51 141.604 243.844 141.875L243.469 140.938L243.969 140.75C247.365 139.479 250.135 138.281 252.281 137.156Z" fill="white"/>
<line x1="203" y1="192.5" x2="135" y2="192.5" stroke="#00C896" stroke-width="3"/>
<path d="M229.25 66.25L224.312 82.6875L222 82.3125L222.312 81.125C222.604 80.0833 222.75 79.2083 222.75 78.5C222.75 76.3333 221.021 75.25 217.562 75.25C213.021 75.25 208.688 77.5625 204.562 82.1875C200.479 86.8125 197.312 92.9375 195.062 100.562C193.771 104.938 192.167 112.375 190.25 122.875C188.333 133.375 187.375 139.958 187.375 142.625C187.375 144.75 188.333 145.812 190.25 145.812C191.583 145.812 193.521 145.229 196.062 144.062L197.188 146C195.354 146.75 192.146 148 187.562 149.75C184.062 151.083 180.979 152.354 178.312 153.562C178.312 149.812 179.188 142.875 180.938 132.75C182.729 122.583 184.792 112.688 187.125 103.062L184.875 105.875C183.042 108.208 180.208 111.75 176.375 116.5L162.75 133.438L148.875 150.562L147.5 152.312L145.938 151.188C147.396 148.354 148.125 145.542 148.125 142.75C148.125 138.125 147.042 131.021 144.875 121.438L142.938 113C142.896 112.917 142.792 112.458 142.625 111.625C132.708 124.917 122.438 135.104 111.812 142.188C101.188 149.271 90.8333 152.812 80.75 152.812C74.1667 152.812 67.9167 151.375 62 148.5C56.125 145.625 51.5 141.729 48.125 136.812C44.25 131.271 42.3125 124.729 42.3125 117.188C42.3125 107.396 45.6667 99.4583 52.375 93.375C59.125 87.2917 67.9167 84.25 78.75 84.25C85 84.25 90.6667 85.4375 95.75 87.8125C100.833 90.1875 107.417 94.7083 115.5 101.375C118.542 103.917 120.812 105.188 122.312 105.188C124.104 105.188 127.021 104.062 131.062 101.812L132.312 103.688L116.5 112.375L114.875 110.875C107.292 103.75 99.8333 98.2917 92.5 94.5C85.1667 90.6667 78.4375 88.75 72.3125 88.75C64.4792 88.75 58.1875 91.0625 53.4375 95.6875C48.7292 100.312 46.375 106.458 46.375 114.125C46.375 123.708 49.9167 131.5 57 137.5C64.125 143.458 73.375 146.438 84.75 146.438C94.75 146.438 104.583 143.229 114.25 136.812C123.958 130.354 133.229 120.896 142.062 108.438C141.271 103.938 140.875 100.167 140.875 97.125C140.875 89.5833 142.521 82.1667 145.812 74.875C149.104 67.5833 152.458 63.9375 155.875 63.9375C159.25 63.9375 160.938 66.8125 160.938 72.5625C160.938 76.2708 159.938 80.5417 157.938 85.375C155.938 90.1667 152.625 96.2708 148 103.688C148.458 105.896 149.375 109.688 150.75 115.062C153.125 124.354 154.646 132.312 155.312 138.938C156.312 137.646 156.979 136.792 157.312 136.375L161.438 131.312L190.625 95.1875C197.542 86.6458 202.521 80.8333 205.562 77.75C208.646 74.625 211.938 72.0833 215.438 70.125C220.062 67.5417 224.667 66.25 229.25 66.25ZM147.562 99.8125C150.062 95.4792 152.062 91.0625 153.562 86.5625C155.104 82.0625 155.875 78.2917 155.875 75.25C155.875 72.0417 154.771 70.4375 152.562 70.4375C150.896 70.4375 149.479 72.2083 148.312 75.75C147.146 79.25 146.562 83.4792 146.562 88.4375C146.562 91.6458 146.896 95.4375 147.562 99.8125Z" fill="#00C896"/>
<defs>
<linearGradient id="paint0_linear_3_32" x1="140.5" y1="2.98023e-08" x2="141" y2="274" gradientUnits="userSpaceOnUse">
<stop stop-color="white"/>
<stop offset="0.0990493" stop-opacity="0.8025"/>
<stop offset="0.914"/>
<stop offset="1" stop-color="#00C896" stop-opacity="0.21"/>
</linearGradient>
<radialGradient id="paint1_radial_3_32" cx="0" cy="0" r="1" gradientUnits="userSpaceOnUse" gradientTransform="translate(140.5 140.5) rotate(90) scale(140.5)">
<stop offset="0.815" stop-opacity="0"/>
<stop offset="0.97" stop-color="white"/>
</radialGradient>
<radialGradient id="paint2_radial_3_32" cx="0" cy="0" r="1" gradientUnits="userSpaceOnUse" gradientTransform="translate(140.5 140.5) rotate(90) scale(140.5)">
<stop offset="0.765" stop-opacity="0"/>
<stop offset="0.895" stop-color="#00C896"/>
</radialGradient>
</defs>
</svg>
