<svg version="1.0" xmlns="http://www.w3.org/2000/svg" width="341.333" height="341.333" viewBox="0 0 256 256"><path d="M32 17.3c-1.9.6-5.8 3.4-8.5 6.2-7.1 7-9.1 14.6-6.3 23.7C18.6 52 24.8 59.3 29 61l3 1.2v67.6l-3 1.2c-4.2 1.7-10.4 9-11.8 13.8-2.8 9.1-.8 16.7 6.3 23.7 10.1 10.1 22.9 10.1 33.1 0 7-7 8.9-15 5.9-25-.5-1.6 1.9-4.5 11.4-13.9l11.9-11.9 3.2 1.2c8.2 2.8 16.6.6 23.6-6.4s8.9-15 5.9-25c-.5-1.6 1.9-4.5 11.4-13.9l11.9-11.9 3.2 1.2c8.2 2.8 16.6.6 23.5-6.4 10.2-10.1 10.2-22.9 0-33-10.1-10.1-22.9-10.1-33.1 0-7 7-8.9 15-5.9 25 .5 1.6-1.9 4.5-11.4 13.9l-11.9 11.9-3.2-1.2c-1.8-.6-5-1.1-7-1.1s-5.2.5-7 1.1l-3.2 1.2-11.9-11.9C64.4 53 62 50.1 62.5 48.5c3-10 1.1-18-5.9-25-7.1-7.1-15.3-9.1-24.6-6.2zm13.5 17.2C50.5 39.4 47 48 40 48c-4.1 0-8-3.9-8-8s3.9-8 8-8c1.9 0 4 .9 5.5 2.5zm112 0c5 4.9 1.5 13.5-5.5 13.5-1.9 0-4-.9-5.5-2.5-1.6-1.5-2.5-3.6-2.5-5.5s.9-4 2.5-5.5c1.5-1.6 3.6-2.5 5.5-2.5s4 .9 5.5 2.5zM62.4 73.9l11.9 11.9-1.2 3.2c-1.4 4.2-1.4 9.8 0 14l1.2 3.2-11.9 11.9C55.9 124.6 50 130 49.3 130c-1 0-1.3-7.2-1.3-34s.3-34 1.3-34c.7 0 6.6 5.4 13.1 11.9zm39.1 16.6c1.6 1.5 2.5 3.6 2.5 5.5s-.9 4-2.5 5.5c-1.5 1.6-3.6 2.5-5.5 2.5s-4-.9-5.5-2.5C88.9 100 88 97.9 88 96s.9-4 2.5-5.5C92 88.9 94.1 88 96 88s4 .9 5.5 2.5zm-56 56c5 4.9 1.5 13.5-5.5 13.5-4.1 0-8-3.9-8-8s3.9-8 8-8c1.9 0 4 .9 5.5 2.5z"/><path d="M186.5 34.4c-3.3 3.3-3.3 7.9 0 11.1 2.3 2.4 2.8 2.5 17.5 2.5 21.2 0 20-1.7 20 26.5V96h-91.1l-2.4 2.5c-3.3 3.2-3.3 7.8 0 11l2.4 2.5H224v48H96v-13.5c0-13.1-.1-13.7-2.5-16-3.2-3.3-7.8-3.3-11.1 0l-2.5 2.5.3 45.2c.3 50 .1 47.9 6.9 54.7 6.9 7 2.6 6.6 72.9 6.6 70.3 0 66 .4 72.9-6.6 7.1-7 6.6.2 6.6-96.9 0-97.1.5-89.9-6.6-96.9-6.1-6.1-7.8-6.6-26.6-6.9l-17.2-.4-2.6 2.6zM224 197.5c0 21.6 0 21.6-2.5 24l-2.4 2.5H100.9l-2.4-2.5c-2.5-2.4-2.5-2.4-2.5-24V176h128v21.5z"/><path d="M154.5 186.5c-2.4 2.3-2.5 3.1-2.5 13.5s.1 11.2 2.5 13.5c3.2 3.3 7.8 3.3 11 0 2.4-2.3 2.5-3.1 2.5-13.5s-.1-11.2-2.5-13.5c-1.5-1.6-3.6-2.5-5.5-2.5s-4 .9-5.5 2.5zM178.5 186.5c-2.4 2.3-2.5 3.1-2.5 13.5s.1 11.2 2.5 13.5c3.2 3.3 7.8 3.3 11 0 2.4-2.3 2.5-3.1 2.5-13.5s-.1-11.2-2.5-13.5c-1.5-1.6-3.6-2.5-5.5-2.5s-4 .9-5.5 2.5zM202.5 186.5c-2.4 2.3-2.5 3.1-2.5 13.5s.1 11.2 2.5 13.5c3.2 3.3 7.8 3.3 11 0 2.4-2.3 2.5-3.1 2.5-13.5s-.1-11.2-2.5-13.5c-1.5-1.6-3.6-2.5-5.5-2.5s-4 .9-5.5 2.5zM178.5 58.5c-2.4 2.3-2.5 3.1-2.5 13.5s.1 11.2 2.5 13.5c1.5 1.6 3.6 2.5 5.5 2.5s4-.9 5.5-2.5c2.4-2.3 2.5-3.1 2.5-13.5s-.1-11.2-2.5-13.5c-1.5-1.6-3.6-2.5-5.5-2.5s-4 .9-5.5 2.5zM202.5 58.5c-2.4 2.3-2.5 3.1-2.5 13.5s.1 11.2 2.5 13.5c1.5 1.6 3.6 2.5 5.5 2.5s4-.9 5.5-2.5c2.4-2.3 2.5-3.1 2.5-13.5s-.1-11.2-2.5-13.5c-1.5-1.6-3.6-2.5-5.5-2.5s-4 .9-5.5 2.5zM154.5 122.5c-2.4 2.3-2.5 3.1-2.5 13.5s.1 11.2 2.5 13.5c1.5 1.6 3.6 2.5 5.5 2.5s4-.9 5.5-2.5c2.4-2.3 2.5-3.1 2.5-13.5s-.1-11.2-2.5-13.5c-1.5-1.6-3.6-2.5-5.5-2.5s-4 .9-5.5 2.5zM178.5 122.5c-2.4 2.3-2.5 3.1-2.5 13.5s.1 11.2 2.5 13.5c1.5 1.6 3.6 2.5 5.5 2.5s4-.9 5.5-2.5c2.4-2.3 2.5-3.1 2.5-13.5s-.1-11.2-2.5-13.5c-1.5-1.6-3.6-2.5-5.5-2.5s-4 .9-5.5 2.5zM202.5 122.5c-2.4 2.3-2.5 3.1-2.5 13.5s.1 11.2 2.5 13.5c1.5 1.6 3.6 2.5 5.5 2.5s4-.9 5.5-2.5c2.4-2.3 2.5-3.1 2.5-13.5s-.1-11.2-2.5-13.5c-1.5-1.6-3.6-2.5-5.5-2.5s-4 .9-5.5 2.5z"/></svg>