<?xml version="1.0" standalone="no"?>
<!DOCTYPE svg PUBLIC "-//W3C//DTD SVG 20010904//EN"
 "http://www.w3.org/TR/2001/REC-SVG-20010904/DTD/svg10.dtd">
<svg version="1.0" xmlns="http://www.w3.org/2000/svg"
 width="256.000000pt" height="256.000000pt" viewBox="0 0 256.000000 256.000000"
 preserveAspectRatio="xMidYMid meet">

<g transform="translate(0.000000,256.000000) scale(0.100000,-0.100000)"
fill="#000000" stroke="none">
<path d="M320 2387 c-19 -6 -58 -34 -85 -62 -71 -70 -91 -146 -63 -237 14 -48
76 -121 118 -138 l30 -12 0 -338 0 -338 -30 -12 c-42 -17 -104 -90 -118 -138
-28 -91 -8 -167 63 -237 101 -101 229 -101 331 0 70 70 89 150 59 250 -5 16
19 45 114 139 l119 119 32 -12 c82 -28 166 -6 236 64 70 70 89 150 59 250 -5
16 19 45 114 139 l119 119 32 -12 c82 -28 166 -6 235 64 102 101 102 229 0
330 -101 101 -229 101 -331 0 -70 -70 -89 -150 -59 -250 5 -16 -19 -45 -114
-139 l-119 -119 -32 12 c-18 6 -50 11 -70 11 -20 0 -52 -5 -70 -11 l-32 -12
-119 119 c-95 94 -119 123 -114 139 30 100 11 180 -59 250 -71 71 -153 91
-246 62z m135 -172 c50 -49 15 -135 -55 -135 -41 0 -80 39 -80 80 0 41 39 80
80 80 19 0 40 -9 55 -25z m1120 0 c50 -49 15 -135 -55 -135 -19 0 -40 9 -55
25 -16 15 -25 36 -25 55 0 19 9 40 25 55 15 16 36 25 55 25 19 0 40 -9 55 -25z
m-951 -394 l119 -119 -12 -32 c-14 -42 -14 -98 0 -140 l12 -32 -119 -119 c-65
-65 -124 -119 -131 -119 -10 0 -13 72 -13 340 0 268 3 340 13 340 7 0 66 -54
131 -119z m391 -166 c16 -15 25 -36 25 -55 0 -19 -9 -40 -25 -55 -15 -16 -36
-25 -55 -25 -19 0 -40 9 -55 25 -16 15 -25 36 -25 55 0 19 9 40 25 55 15 16
36 25 55 25 19 0 40 -9 55 -25z m-560 -560 c50 -49 15 -135 -55 -135 -41 0
-80 39 -80 80 0 41 39 80 80 80 19 0 40 -9 55 -25z"/>
<path d="M1865 2216 c-33 -33 -33 -79 0 -111 23 -24 28 -25 175 -25 212 0 200
17 200 -265 l0 -215 -455 0 -456 0 -24 -25 c-33 -32 -33 -78 0 -110 l24 -25
456 0 455 0 0 -240 0 -240 -640 0 -640 0 0 135 c0 131 -1 137 -25 160 -32 33
-78 33 -111 0 l-25 -25 3 -452 c3 -500 1 -479 69 -547 69 -70 26 -66 729 -66
703 0 660 -4 729 66 71 70 66 -2 66 969 0 971 5 899 -66 969 -61 61 -78 66
-266 69 l-172 4 -26 -26z m375 -1631 c0 -216 0 -216 -25 -240 l-24 -25 -591 0
-591 0 -24 25 c-25 24 -25 24 -25 240 l0 215 640 0 640 0 0 -215z"/>
<path d="M1545 695 c-24 -23 -25 -31 -25 -135 0 -104 1 -112 25 -135 32 -33
78 -33 110 0 24 23 25 31 25 135 0 104 -1 112 -25 135 -15 16 -36 25 -55 25
-19 0 -40 -9 -55 -25z"/>
<path d="M1785 695 c-24 -23 -25 -31 -25 -135 0 -104 1 -112 25 -135 32 -33
78 -33 110 0 24 23 25 31 25 135 0 104 -1 112 -25 135 -15 16 -36 25 -55 25
-19 0 -40 -9 -55 -25z"/>
<path d="M2025 695 c-24 -23 -25 -31 -25 -135 0 -104 1 -112 25 -135 32 -33
78 -33 110 0 24 23 25 31 25 135 0 104 -1 112 -25 135 -15 16 -36 25 -55 25
-19 0 -40 -9 -55 -25z"/>
<path d="M1785 1975 c-24 -23 -25 -31 -25 -135 0 -104 1 -112 25 -135 15 -16
36 -25 55 -25 19 0 40 9 55 25 24 23 25 31 25 135 0 104 -1 112 -25 135 -15
16 -36 25 -55 25 -19 0 -40 -9 -55 -25z"/>
<path d="M2025 1975 c-24 -23 -25 -31 -25 -135 0 -104 1 -112 25 -135 15 -16
36 -25 55 -25 19 0 40 9 55 25 24 23 25 31 25 135 0 104 -1 112 -25 135 -15
16 -36 25 -55 25 -19 0 -40 -9 -55 -25z"/>
<path d="M1545 1335 c-24 -23 -25 -31 -25 -135 0 -104 1 -112 25 -135 15 -16
36 -25 55 -25 19 0 40 9 55 25 24 23 25 31 25 135 0 104 -1 112 -25 135 -15
16 -36 25 -55 25 -19 0 -40 -9 -55 -25z"/>
<path d="M1785 1335 c-24 -23 -25 -31 -25 -135 0 -104 1 -112 25 -135 15 -16
36 -25 55 -25 19 0 40 9 55 25 24 23 25 31 25 135 0 104 -1 112 -25 135 -15
16 -36 25 -55 25 -19 0 -40 -9 -55 -25z"/>
<path d="M2025 1335 c-24 -23 -25 -31 -25 -135 0 -104 1 -112 25 -135 15 -16
36 -25 55 -25 19 0 40 9 55 25 24 23 25 31 25 135 0 104 -1 112 -25 135 -15
16 -36 25 -55 25 -19 0 -40 -9 -55 -25z"/>
</g>
</svg>
