<svg xmlns="http://www.w3.org/2000/svg" width="1500" height="1500"><path d="M521.576 213.75h431.04c11.667 0 21.125 9.458 21.125 21.125S964.283 256 952.616 256h-431.04c-11.667 0-21.125-9.458-21.125-21.125s9.458-21.125 21.125-21.125z" fill="#696969"/><path d="M525.333 171H612v20h-86.667v-20z" fill="#009FE3"/><path d="M638.667 171h86.666v20h-86.666v-20z" fill="#C7D302"/><path d="M750.5 171h86.667v20H750.5v-20z" fill="#F07E16"/><path d="M861.861 171h86.667v20h-86.667v-20zM861.861 278h86.667v146.5h-86.667V278z" fill="#DF2815"/><path d="M750.5 278h86.828v238H750.5V278z" fill="#F07E16"/><path d="M638.667 278h86.661v356.5h-86.661V278z" fill="#C7D302"/><path d="M525.333 278H612v434.5h-86.667V278z" fill="#009FE3"/><path d="M252.959 1173.846q-12.82 0-23.249-2.825-10.43-2.825-18.796-7.496-8.365-4.672-14.775-10.973-6.41-6.302-11.407-13.255h-2.608q.652 7.388 1.304 14.124.434 5.649.869 11.625.435 5.975.435 9.452v101.906h-39.546V930.921h32.158l5.649 32.158h1.739q4.997-7.605 11.298-14.232 6.302-6.627 14.667-11.516 8.366-4.889 18.795-7.822 10.43-2.934 23.467-2.934 20.425 0 37.156 7.822 16.731 7.823 28.573 23.359 11.842 15.536 18.36 38.568 6.519 23.032 6.519 53.452 0 30.637-6.519 53.778-6.518 23.141-18.36 38.785-11.842 15.645-28.573 23.576-16.731 7.931-37.156 7.931zm-7.605-214.461q-16.514 0-27.921 4.998-11.408 4.997-18.469 15.21-7.062 10.212-10.43 25.422-3.368 15.21-3.802 35.852v8.909q0 21.946 2.933 39.003 2.933 17.056 9.995 28.681 7.062 11.625 18.795 17.6 11.734 5.976 29.334 5.976 29.333 0 43.131-23.684 13.797-23.685 13.797-68.011 0-45.195-13.797-67.575-13.798-22.381-43.566-22.381zM370.293 930.921h41.067l46.716 133.196q3.042 8.691 6.193 18.252 3.151 9.56 5.867 19.121 2.716 9.56 4.671 18.469 1.956 8.909 2.825 16.514h1.304q1.086-5.432 3.476-14.776 2.39-9.343 5.324-19.881 2.933-10.539 6.084-20.751 3.15-10.212 5.54-17.383l43.24-132.761h40.85l-94.302 269.651q-6.084 17.6-13.146 31.615-7.061 14.015-16.405 23.792-9.343 9.778-21.946 15.102-12.602 5.323-29.985 5.323-11.299 0-19.556-1.195-8.256-1.195-14.123-2.499v-31.506q4.563 1.087 11.516 1.847 6.953.761 14.558.761 10.43 0 18.035-2.499t13.254-7.279q5.65-4.781 9.669-11.734 4.02-6.953 7.279-15.862l12.386-34.765z" fill="#696969"/><path d="M695.568 1141.47q3.911 0 8.8-.434 4.889-.435 9.452-1.087 4.563-.652 8.366-1.521 3.802-.869 5.758-1.521v29.986q-2.825 1.303-7.171 2.607-4.345 1.304-9.56 2.281-5.215.978-10.864 1.521-5.65.544-11.082.544-13.472 0-24.988-3.477-11.516-3.476-19.881-11.951-8.366-8.474-13.146-22.923-4.78-14.45-4.78-36.395V960.689h-33.68v-17.6l33.68-16.948 16.948-49.976h22.815v54.756h59.971v29.768h-59.971V1099.1q0 21.076 6.844 31.723 6.845 10.647 22.489 10.647zM868.527 1173.846q-23.901 0-43.674-8.04-19.773-8.039-34.005-23.467-14.232-15.427-22.055-38.242-7.822-22.815-7.822-52.148 0-29.551 7.171-52.801 7.17-23.249 20.207-39.437t31.18-24.662q18.144-8.474 40.09-8.474 21.511 0 38.676 7.714 17.166 7.713 29.117 21.728 11.95 14.015 18.36 33.68 6.41 19.664 6.41 43.565v24.553H801.821q1.086 41.936 17.708 61.709 16.623 19.773 49.433 19.773 11.081 0 20.533-1.086 9.452-1.086 18.252-3.151 8.8-2.064 17.057-5.215 8.257-3.15 16.731-7.061v35.2q-8.691 4.128-17.057 7.17-8.365 3.042-17.165 4.998-8.8 1.955-18.252 2.825-9.452.869-20.534.869zm-9.778-214.461q-24.77 0-39.22 16.948-14.449 16.949-16.839 49.324h106.904q0-14.775-2.933-27.052-2.934-12.276-9.126-20.968-6.193-8.691-15.753-13.471-9.561-4.781-23.033-4.781zM1155.126 1104.097q0 17.383-6.301 30.42-6.301 13.037-18.143 21.837-11.842 8.8-28.573 13.146t-37.591 4.346q-23.684 0-40.632-3.803-16.948-3.802-29.768-11.19v-36.069q6.736 3.476 14.993 6.844 8.257 3.368 17.383 5.976 9.126 2.607 18.795 4.237 9.669 1.629 19.229 1.629 14.124 0 24.01-2.39 9.887-2.39 16.08-6.844 6.192-4.455 9.017-10.865 2.825-6.41 2.825-14.232 0-6.736-2.173-12.168-2.173-5.432-7.931-10.755-5.758-5.324-15.753-10.756-9.995-5.432-25.64-12.168-15.645-6.736-28.138-13.254-12.494-6.519-21.186-14.559-8.691-8.039-13.363-18.577-4.671-10.539-4.671-25.097 0-15.21 5.975-27.052 5.975-11.842 16.84-19.881 10.864-8.04 26.074-12.168 15.21-4.129 33.896-4.129 21.077 0 38.568 4.563 17.492 4.563 33.136 11.951l-13.689 31.941q-14.123-6.301-29.007-10.973-14.884-4.672-30.311-4.672-22.164 0-32.811 7.279-10.646 7.279-10.646 20.751 0 7.605 2.498 13.254 2.499 5.65 8.583 10.647 6.084 4.998 16.296 10.104 10.213 5.106 25.423 11.408 15.644 6.518 27.921 13.037 12.277 6.518 20.968 14.666 8.691 8.149 13.254 18.578 4.563 10.43 4.563 24.988zM1285.28 1141.47q3.911 0 8.8-.434 4.889-.435 9.452-1.087 4.563-.652 8.366-1.521 3.802-.869 5.758-1.521v29.986q-2.825 1.303-7.171 2.607-4.345 1.304-9.56 2.281-5.215.978-10.865 1.521-5.649.544-11.081.544-13.472 0-24.988-3.477-11.516-3.476-19.882-11.951-8.365-8.474-13.145-22.923-4.781-14.45-4.781-36.395V960.689h-33.679v-17.6l33.679-16.948 16.949-49.976h22.815v54.756h59.97v29.768h-59.97V1099.1q0 21.076 6.844 31.723 6.845 10.647 22.489 10.647z" fill="#009FE3"/></svg>