<?xml version="1.0" encoding="UTF-8"?>
<!DOCTYPE svg PUBLIC "-//W3C//DTD SVG 1.1//EN" "http://www.w3.org/Graphics/SVG/1.1/DTD/svg11.dtd">
<svg xmlns="http://www.w3.org/2000/svg" version="1.1" width="318px" height="159px" style="shape-rendering:geometricPrecision; text-rendering:geometricPrecision; image-rendering:optimizeQuality; fill-rule:evenodd; clip-rule:evenodd" xmlns:xlink="http://www.w3.org/1999/xlink">
<g><path style="opacity:1" fill="#fefefe" d="M -0.5,-0.5 C 105.5,-0.5 211.5,-0.5 317.5,-0.5C 317.5,52.5 317.5,105.5 317.5,158.5C 211.5,158.5 105.5,158.5 -0.5,158.5C -0.5,105.5 -0.5,52.5 -0.5,-0.5 Z"/></g>
<g><path style="opacity:1" fill="#3771a3" d="M 102.5,42.5 C 109.175,42.3337 115.842,42.5004 122.5,43C 125.548,43.6064 128.048,45.1064 130,47.5C 131.601,55.3953 131.934,63.3953 131,71.5C 129.833,74 128,75.8333 125.5,77C 116.066,77.0533 106.733,77.72 97.5,79C 95.1898,80.6374 93.6898,82.804 93,85.5C 92.5012,89.4862 92.3345,93.4862 92.5,97.5C 86.1023,98.9474 81.269,96.9474 78,91.5C 75.6771,82.6645 76.0104,73.9979 79,65.5C 80.214,63.9512 81.714,62.7845 83.5,62C 93.4944,61.5002 103.494,61.3335 113.5,61.5C 113.5,60.5 113.5,59.5 113.5,58.5C 107.5,58.5 101.5,58.5 95.5,58.5C 95.3347,54.8183 95.5014,51.1516 96,47.5C 97.7804,45.2059 99.9471,43.5392 102.5,42.5 Z"/></g>
<g><path style="opacity:1" fill="#eef1f5" d="M 101.5,47.5 C 106.493,47.997 107.493,50.1637 104.5,54C 99.3823,53.8242 98.3823,51.6576 101.5,47.5 Z"/></g>
<g><path style="opacity:1" fill="#20254a" d="M 196.5,68.5 C 197.5,68.5 198.5,68.5 199.5,68.5C 199.426,72.5412 198.093,73.2079 195.5,70.5C 195.863,69.8165 196.196,69.1499 196.5,68.5 Z"/></g>
<g><path style="opacity:1" fill="#1e224b" d="M 160.5,69.5 C 161.833,69.5 163.167,69.5 164.5,69.5C 164.334,74.5111 164.501,79.5111 165,84.5C 167.592,85.9817 169.925,85.6483 172,83.5C 172.499,78.8452 172.666,74.1785 172.5,69.5C 173.5,69.5 174.5,69.5 175.5,69.5C 175.666,74.8437 175.499,80.1771 175,85.5C 170.404,89.4322 165.737,89.4322 161,85.5C 160.501,80.1771 160.334,74.8437 160.5,69.5 Z"/></g>
<g><path style="opacity:1" fill="#9496a4" d="M 218.5,74.5 C 217.596,73.791 217.263,72.791 217.5,71.5C 216.5,71.5 215.5,71.5 214.5,71.5C 214.737,72.791 214.404,73.791 213.5,74.5C 213.5,73.1667 213.5,71.8333 213.5,70.5C 215.167,70.5 216.833,70.5 218.5,70.5C 218.5,71.8333 218.5,73.1667 218.5,74.5 Z"/></g>
<g><path style="opacity:1" fill="#292c51" d="M 204.5,71.5 C 205.5,71.5 206.5,71.5 207.5,71.5C 207.5,72.5 207.5,73.5 207.5,74.5C 208.5,74.5 209.5,74.5 210.5,74.5C 210.5,75.5 210.5,76.5 210.5,77.5C 209.5,77.5 208.5,77.5 207.5,77.5C 207.5,80.1667 207.5,82.8333 207.5,85.5C 208.5,85.5 209.5,85.5 210.5,85.5C 210.5,86.5 210.5,87.5 210.5,88.5C 207.956,88.8957 205.789,88.229 204,86.5C 203.687,82.3432 202.853,78.3432 201.5,74.5C 202.5,74.5 203.5,74.5 204.5,74.5C 204.5,73.5 204.5,72.5 204.5,71.5 Z"/></g>
<g><path style="opacity:1" fill="#171e46" d="M 218.5,74.5 C 219.833,74.5 220.5,75.1667 220.5,76.5C 219.5,76.5 218.5,76.5 217.5,76.5C 217.19,79.7131 217.523,82.7131 218.5,85.5C 220.048,85.8212 220.715,86.8212 220.5,88.5C 218.533,88.7394 216.699,88.4061 215,87.5C 214.928,83.4695 214.094,79.6361 212.5,76C 212.57,75.2352 212.903,74.7352 213.5,74.5C 214.404,73.791 214.737,72.791 214.5,71.5C 215.5,71.5 216.5,71.5 217.5,71.5C 217.263,72.791 217.596,73.791 218.5,74.5 Z"/></g>
<g><path style="opacity:1" fill="#191f46" d="M 255.5,86.5 C 255.849,82.2584 255.183,78.2584 253.5,74.5C 255.048,74.1788 255.715,73.1788 255.5,71.5C 256.5,71.5 257.5,71.5 258.5,71.5C 258.5,72.5 258.5,73.5 258.5,74.5C 259.5,74.5 260.5,74.5 261.5,74.5C 261.5,75.5 261.5,76.5 261.5,77.5C 260.5,77.5 259.5,77.5 258.5,77.5C 258.5,80.1667 258.5,82.8333 258.5,85.5C 259.5,85.5 260.5,85.5 261.5,85.5C 261.5,86.5 261.5,87.5 261.5,88.5C 258.99,88.9465 256.99,88.2798 255.5,86.5 Z"/></g>
<g><path style="opacity:1" fill="#181e47" d="M 241.5,74.5 C 244.685,74.0196 247.519,74.6863 250,76.5C 250.591,77.4835 250.257,78.1501 249,78.5C 247.667,77.8333 246.333,77.1667 245,76.5C 243.72,76.6135 242.887,77.2801 242.5,78.5C 245.382,79.772 248.215,81.1053 251,82.5C 251.624,84.4645 251.124,86.1311 249.5,87.5C 245.109,89.3798 241.442,88.5465 238.5,85C 240.938,84.3179 243.105,84.8179 245,86.5C 246.28,86.3865 247.113,85.7199 247.5,84.5C 245.539,82.8872 243.206,81.8872 240.5,81.5C 239.167,78.8619 239.5,76.5286 241.5,74.5 Z"/></g>
<g><path style="opacity:1" fill="#1f244a" d="M 179.5,74.5 C 181.143,74.4802 182.476,75.1468 183.5,76.5C 186.364,73.8975 189.197,73.8975 192,76.5C 192.499,80.4862 192.666,84.4862 192.5,88.5C 191.167,88.5 189.833,88.5 188.5,88.5C 188.665,85.1501 188.498,81.8168 188,78.5C 186.667,77.1667 185.333,77.1667 184,78.5C 183.502,81.8168 183.335,85.1501 183.5,88.5C 182.167,88.5 180.833,88.5 179.5,88.5C 179.5,83.8333 179.5,79.1667 179.5,74.5 Z"/></g>
<g><path style="opacity:1" fill="#23274d" d="M 195.5,74.5 C 196.833,74.5 198.167,74.5 199.5,74.5C 199.5,79.1667 199.5,83.8333 199.5,88.5C 198.167,88.5 196.833,88.5 195.5,88.5C 195.5,83.8333 195.5,79.1667 195.5,74.5 Z"/></g>
<g><path style="opacity:1" fill="#1d224a" d="M 226.5,74.5 C 233.128,73.133 236.462,75.7997 236.5,82.5C 233.102,82.1796 229.768,82.513 226.5,83.5C 227.171,84.9458 228.338,85.6125 230,85.5C 232.154,84.7479 234.32,84.5812 236.5,85C 233.515,88.5497 229.848,89.383 225.5,87.5C 222.622,82.8742 222.955,78.5409 226.5,74.5 Z"/></g>
<g><path style="opacity:1" fill="#888a9a" d="M 220.5,76.5 C 218.758,79.1445 218.091,82.1445 218.5,85.5C 217.523,82.7131 217.19,79.7131 217.5,76.5C 218.5,76.5 219.5,76.5 220.5,76.5 Z"/></g>
<g><path style="opacity:1" fill="#cecfd5" d="M 228.5,76.5 C 231.5,76.1667 232.833,77.5 232.5,80.5C 230.396,80.7989 228.396,80.4656 226.5,79.5C 227.193,78.4822 227.859,77.4822 228.5,76.5 Z"/></g>
<g><path style="opacity:1" fill="#828698" d="M 253.5,74.5 C 255.183,78.2584 255.849,82.2584 255.5,86.5C 254.936,82.9918 253.936,79.4918 252.5,76C 252.57,75.2352 252.903,74.7352 253.5,74.5 Z"/></g>
<g><path style="opacity:1" fill="#ffd444" d="M 141.5,96.5 C 131.833,96.5 122.167,96.5 112.5,96.5C 112.263,97.791 112.596,98.791 113.5,99.5C 119.5,99.5 125.5,99.5 131.5,99.5C 133.671,109.008 130.005,114.508 120.5,116C 96.7345,119.094 88.5678,108.927 96,85.5C 97.2273,83.2739 99.0607,81.7739 101.5,81C 109.833,80.6667 118.167,80.3333 126.5,80C 130,79.1667 132.167,77 133,73.5C 133.499,69.1794 133.666,64.8461 133.5,60.5C 143.073,58.907 148.573,62.907 150,72.5C 150.93,79.0042 150.264,85.3375 148,91.5C 146.223,93.7899 144.056,95.4566 141.5,96.5 Z"/></g>
<g><path style="opacity:1" fill="#ffebb4" d="M 141.5,96.5 C 131.955,96.8434 122.622,97.8434 113.5,99.5C 112.596,98.791 112.263,97.791 112.5,96.5C 122.167,96.5 131.833,96.5 141.5,96.5 Z"/></g>
<g><path style="opacity:1" fill="#fffcf6" d="M 122.5,103.5 C 126.264,104.385 127.264,106.552 125.5,110C 120.148,110.175 119.148,108.009 122.5,103.5 Z"/></g>
</svg>
