<svg fill="#FFF" xmlns="http://www.w3.org/2000/svg" width="50" height="50"><path d="M6.045 15.99v4.23c-.408-.104-.898-.14-1.342-.14C1.844 20.08 0 21.873 0 24.635c0 2.868 1.738 4.359 5.08 4.363 1.116 0 2.15-.102 3.55-.367V15.99H6.046zm4.201.014v2.78h2.736v-2.78h-2.736zm0 3.996v5.615c0 2.358-.123 3.256-.514 4.03-.373.757-.958 1.251-2.166 1.812l2.54 1.197c1.207-.6 1.792-1.144 2.236-2.006.475-.896.637-1.935.637-4.097V20h-2.733zm35.32 0c-2.809 0-4.561 1.762-4.566 4.588C41 27.31 42.698 29 45.455 29 48.247 29 50 27.24 50 24.432 50 21.692 48.32 20 45.566 20zm-27.482.08c-1.21 0-2.318.248-3.477.807l.004 2.088c1.024-.543 2.114-.825 3.084-.825.662 0 .903.178.903.668v.594c-3.22.278-4.532 1.155-4.532 3.049 0 1.75.988 2.539 3.188 2.539 1.088 0 2.571-.125 3.746-.299V23.22c0-1.122-.071-1.648-.291-2.051-.392-.72-1.277-1.088-2.625-1.088zm8.834 0c-1.348 0-2.679.191-4.295.613v8.198h2.732v-6.438c.55-.16.886-.193 1.26-.193.975 0 1.432.387 1.432 1.426v5.205h2.637v-5.313c0-1.353-.181-1.987-.748-2.566-.602-.614-1.617-.932-3.018-.932zm10.867.016c-3.993 0-6.25 1.738-6.25 4.818 0 2.48 1.524 4.047 3.922 4.047.708 0 1.243-.107 1.775-.37v.052c0 1.723-.764 2.445-2.556 2.445a6.26 6.26 0 0 1-2.93-.719h-.002v2.502c.958.37 1.88.527 2.947.527 2.096 0 3.572-.652 4.424-1.97.584-.9.781-1.99.781-4.313v-.738c-.018-.37-.017-.74-.035-1.11l-.017-1.478-.035-1.144v-.284c.549.052-.119-.065.609.075l.937-1.954c-1.313-.265-2.397-.386-3.57-.386zm7.742 2.062c1.056 0 1.662.871 1.662 2.338 0 1.484-.622 2.34-1.68 2.34-1.07 0-1.7-.856-1.7-2.34s.625-2.338 1.718-2.338zm-40.556.102c.337 0 .752.036 1.072.14v4.348c-.391.052-.787.07-1.09.07-1.4 0-2.166-.796-2.166-2.236 0-1.479.8-2.322 2.184-2.322zm31.924.017H37.18v.21l.017.896.018 1.25c0 .369.017.722.017 1.039v.935c-.352.105-.654.174-1.027.174-1.208 0-1.885-.776-1.885-2.129 0-.949.337-1.618.992-1.988.427-.265 1.05-.404 1.583-.387zm-18.178 2.9v1.807c-.51.087-.87.123-1.262.123-.717 0-1.04-.246-1.04-.771 0-.701.565-.984 2.302-1.158z"/></svg>