<svg width="800" height="800" viewBox="0 0 16 16" xmlns="http://www.w3.org/2000/svg" fill="none"><path fill="#000" fill-rule="evenodd" d="M5.374 15c-.335 0-.66-.153-.874-.431l-3.254-4.172a1.15 1.15 0 0 1-.214-.978l1.165-5.207c.074-.345.298-.623.605-.776l4.715-2.32A1.05 1.05 0 0 1 8.002 1c.168 0 .335.038.485.115L13.2 3.426c.308.153.532.432.606.777l1.165 5.207c.074.345 0 .7-.214.978L11.5 14.566c-.214.268-.54.434-.875.434h-5.25zm7.718-5.835.031.008a.308.308 0 0 1 .26.371.306.306 0 0 1-.396.223h-.004l-.003-.001-.003-.001-.03-.007-.05-.01a2.548 2.548 0 0 1-.274-.106 2.87 2.87 0 0 0-.533-.156.242.242 0 0 0-.171.063 4.76 4.76 0 0 0-.131-.023 3.972 3.972 0 0 1-1.764 2.212c.015.042.032.083.051.123a.239.239 0 0 0-.023.18 2.8 2.8 0 0 0 .271.484c.06.078.114.16.164.244l.028.057.012.025a.306.306 0 0 1-.381.44.307.307 0 0 1-.172-.18 2.608 2.608 0 0 0-.01-.02l-.028-.058a2.545 2.545 0 0 1-.089-.28 2.835 2.835 0 0 0-.21-.512.242.242 0 0 0-.156-.095 5.926 5.926 0 0 1-.03-.053l-.035-.064a3.97 3.97 0 0 1-2.824-.007l-.069.125a.249.249 0 0 0-.132.064c-.104.17-.184.355-.237.548a2.525 2.525 0 0 1-.088.28l-.025.05-.013.027v.001a.307.307 0 1 1-.553-.261l.014-.03.026-.052c.05-.085.104-.166.164-.244.108-.156.2-.322.277-.496a.302.302 0 0 0-.028-.173l.056-.133A3.972 3.972 0 0 1 4.22 9.532l-.134.023a.34.34 0 0 0-.176-.062 2.872 2.872 0 0 0-.533.156c-.09.04-.181.075-.274.105l-.05.011-.03.007H3.02l-.002.002h-.005a.308.308 0 0 1-.397-.349.306.306 0 0 1 .261-.245l.004-.001h.003l.006-.002c.024-.006.054-.014.076-.018.097-.013.195-.021.293-.023a2.98 2.98 0 0 0 .549-.09.422.422 0 0 0 .131-.133l.128-.037a3.938 3.938 0 0 1 .624-2.752l-.097-.087a.338.338 0 0 0-.062-.176 2.854 2.854 0 0 0-.455-.319 2.557 2.557 0 0 1-.254-.148 1.129 1.129 0 0 1-.063-.05l-.004-.004a.323.323 0 0 1-.076-.45.295.295 0 0 1 .244-.107.365.365 0 0 1 .213.08l.022.017c.016.013.034.026.046.037.071.067.139.139.202.213.125.137.263.262.412.372a.24.24 0 0 0 .182.018l.11.078a3.938 3.938 0 0 1 2.552-1.224l.007-.129a.332.332 0 0 0 .1-.157 2.844 2.844 0 0 0-.034-.554 2.555 2.555 0 0 1-.042-.29V3.158A.306.306 0 0 1 8 2.82a.308.308 0 0 1 .306.337v.087a2.53 2.53 0 0 1-.041.29 2.85 2.85 0 0 0-.035.553.242.242 0 0 0 .1.153v.007l.007.13c.967.087 1.87.522 2.54 1.223l.116-.083a.34.34 0 0 0 .186-.02 2.8 2.8 0 0 0 .412-.373 2.53 2.53 0 0 1 .202-.213l.051-.04.017-.014a.308.308 0 0 1 .472.388.307.307 0 0 1-.09.09.146.146 0 0 0-.025.02l-.043.033a2.549 2.549 0 0 1-.254.148 2.865 2.865 0 0 0-.455.32.24.24 0 0 0-.058.172 4.458 4.458 0 0 1-.05.044l-.058.053c.542.806.769 1.783.637 2.745l.123.036a.342.342 0 0 0 .132.132c.18.048.364.078.55.09.097.003.195.01.292.024l.058.013zm-2.875-3.1-1.308.925-.004-.002a.27.27 0 0 1-.43-.205v-.001l-.091-1.598a3.183 3.183 0 0 1 1.833.882zM7.754 7.818h.492l.306.381-.11.476L8 8.886l-.443-.213-.11-.475.307-.381zM7.29 5.24c.107-.024.216-.043.326-.056l-.09 1.6-.008.004a.268.268 0 0 1-.293.256.27.27 0 0 1-.135-.05l-.002.001-1.316-.93c.419-.41.945-.696 1.518-.825zM5.296 6.663l1.201 1.071-.001.007a.269.269 0 0 1-.106.462l-.001.005-1.54.443a3.134 3.134 0 0 1 .447-1.988zm1.608 2.846-.612 1.474a3.16 3.16 0 0 1-1.27-1.586L6.6 9.13l.003.003a.265.265 0 0 1 .18.029.27.27 0 0 1 .117.341l.004.006zm1.806 1.896c-.572.13-1.17.1-1.726-.088l.777-1.4h.001a.27.27 0 0 1 .475-.001h.006l.779 1.402a3.286 3.286 0 0 1-.312.087zm1.004-.416L9.096 9.5l.001-.003a.269.269 0 0 1 .296-.37l.003-.004 1.593.269a3.147 3.147 0 0 1-1.275 1.597zm1.442-2.343L9.61 8.201l-.002-.006a.27.27 0 0 1-.185-.343.27.27 0 0 1 .08-.12L9.5 7.73l1.195-1.067c.366.594.527 1.29.46 1.983z" clip-rule="evenodd"/></svg>