<svg fill="#FFF" xmlns="http://www.w3.org/2000/svg" width="50" height="50"><path d="M2.61 14.629c-.416.035-.778.369-.26.928.995.562-.982.975-.405 1.351.184.396-.014.837-.552.908-.788.068-.714 1.144.054.58.857-.272.148.108-.256.186-.907.264-1.525 1.17-.998 1.998.504 1.14.639 2.412 1.03 3.598.647 1.824 1.592 3.56 2.82 5.058.583.85 1.435 1.454 2.236 2.084.788.511 1.666 1.023 2.563 1.284 1.593.583 3.302.637 4.976.769a17.538 17.538 0 0 0 3.051-.254c.906.098 1.558-.676 2.377-.267.496-.44 1.219-.249 1.715-.569.367-1.248-1.26-.247-1.775-.857-.56.658-1.03-.072-1.71.133-1.155.058.088-.518.06-1.047-.614-.47-1.306.645-1.698.945-.968-.175-1.927-.45-2.815-.87-1.012-.526-2.005-1.153-2.738-2.042-.767-.908-1.615-1.826-1.965-2.992-.74-1.925-.692-4.01-.88-6.032.07-1.369 1.515.148 2.14-.347-.214-.71-1.354-.935-1.984-1.219-.608-.042-.83-.587-1.477-.63.031-.76-1.189-.343-1.633-.884.437-1.128-1.447.027-1.3-.949.307-.634-.161-.898-.577-.863zm.005.096c.099-.025.212-.005.326.086.542.73-.996-.084-.462.613-.325-.152-.16-.626.136-.7zm39.3.36c-.068 0-.243.092-.526.278-.35.226-.72.404-1.106.533-.242.083-.361.2-.361.348 0 .103.084.183.254.24.36.12.598.284.71.495.084.165.126.457.126.88v6.756c0 .592-.143.924-.426.996-.315.082-.473.204-.473.364 0 .067.006.12.016.156.025.103.193.141.502.115 1.227-.098 2.098-.122 2.613-.076.165.016.266.008.305-.02.039-.028.058-.101.058-.22 0-.15-.12-.24-.363-.272-.392-.04-.642-.098-.75-.17-.154-.103-.238-.318-.248-.648-.01-.33-.014-.583-.014-.758 0-.247.122-.438.364-.572.216-.155.367-.233.455-.233.072 0 .132.043.178.125a16.041 16.041 0 0 0 2.072 2.752c.123.13.33.165.619.108a22.732 22.732 0 0 1 1.414-.076c.242-.01.363-.108.363-.288 0-.144-.029-.232-.086-.265-.057-.033-.202-.051-.44-.051-.318 0-.662-.157-1.028-.47-.572-.5-1.18-1.24-1.825-2.22-.175-.272-.261-.445-.261-.517 0-.046.02-.084.06-.115.556-.556 1.08-.946 1.57-1.168a2.861 2.861 0 0 1 1.122-.272c.253-.015.379-.11.379-.285 0-.186-.08-.282-.24-.287-.49 0-.982-.003-1.477-.008-.711-.005-1.252-.032-1.623-.084-.165-.026-.257.053-.272.233-.01.18.076.28.256.3.417.057.625.154.625.293 0 .077-.062.182-.186.311a42.2 42.2 0 0 1-1.576 1.312c-.16.134-.278.202-.355.202-.072 0-.11-.068-.11-.202l-.013-4.837c0-.634.003-1.14.008-1.516l.007-.766c0-.268-.107-.4-.318-.4zm-17.647.056c-.082 0-.28.091-.588.277-.376.237-.74.412-1.09.525-.232.077-.348.195-.348.35 0 .103.08.181.24.238.304.108.516.261.637.457s.184.503.184.92v6.994c0 .422-.141.677-.422.762-.281.085-.42.189-.42.313 0 .139.023.224.072.255.05.03.18.035.39.014 1.053-.088 1.932-.096 2.643-.03.232.026.348-.065.348-.27 0-.15-.115-.237-.348-.262-.376-.046-.641-.142-.796-.284-.155-.142-.233-.37-.233-.683l-.03-6.903a36.344 36.344 0 0 1 .046-2.28c0-.264-.094-.393-.285-.393zm-10.28.812c-.057.01-.097.064-.123.162-.05.16.027.286.233.38.329.15.554.316.675.5.121.182.182.444.182.784v6.617c0 .83-.253 1.274-.758 1.33-.22.022-.332.097-.332.231 0 .212.11.303.332.272.793-.108 1.8-.112 3.022-.014.422.036.648-.031.68-.201.03-.195-.08-.306-.333-.332-.494-.062-.815-.132-.964-.21-.191-.092-.288-.269-.288-.527V21.47c0-.066.046-.102.14-.102.818 0 1.412.023 1.775.067.363.044.612.389.746 1.033.037.17.125.245.27.23.174-.01.26-.08.255-.215-.052-1.123-.005-2.035.139-2.736.026-.124-.05-.204-.225-.24-.206-.046-.325.034-.361.24-.057.377-.115.61-.174.7-.06.09-.176.144-.346.165-.87.057-1.535.09-1.994.094-.149.005-.223-.05-.223-.17v-3.502c0-.119.025-.196.077-.232.083-.057.259-.084.527-.084 1.17 0 1.9.022 2.193.068.273.036.493.144.658.319.14.149.287.41.442.787.056.139.157.209.3.209.145 0 .216-.08.216-.24.02-.815.074-1.394.162-1.739a.406.406 0 0 0 .01-.066c0-.077-.173-.107-.518-.086a62.805 62.805 0 0 1-3.688.094c-1.206 0-1.972-.027-2.297-.079-.222-.036-.358-.046-.41-.03zm-10.197.184c.138.029.186.111-.193.162l-.153-.008c-.02-.16.208-.184.346-.154zm-.152.533c.274.12.835.175.927.476-.56-.292.112.352-.359.34-.254.003-.724-.542-.568-.816zm-.141.453c.635.483-.354 0-.756.303-.633.064.694-.357.756-.303zm1.678.29c.08.021.08.098-.053.259.492.588.11.39-.225-.027.294.203.068 1.08-.384.476-.32-.596-.523-.193-.184.215-.333-.627-1.297-.36-2.002-.12-.455-.05 1.183-.388 1.36-.468.273.005 1.245-.403 1.488-.336zm1.972.663c.202-.002.4.005.596.022.315.367-.238.988-.814 1.029-.7.262-1.413.326-2.063.412-.834-.105-1.433.645-2.297.74.23-.426-.189-.147-.627-.168.223.86-1.543-.228-.5-.435-.782-.278-.793.544-.71 1.012H.68c-.716-.922.08-1.299.986-1.417-.172.425.247.562.65.64.653-.18-.43-.297.065-.468.27-.05-.864-.271.082-.398.97-.163 1.843-.544 2.805-.744.65-.13 1.277-.217 1.88-.225zm-.214.219c-.086-.027-.285.027-.387.295.074.169.11-.05.096-.108.35-.053.376-.16.29-.187zm-2.018.36c-.28-.014-.738.047-.9.241.206.094.432-.26.728-.037.553-.105.452-.192.172-.205zm3.996.05c.14-.023.573.139.42.41-.105.03-.087-.128-.164-.154-.317-.162-.34-.242-.256-.256zm-5.426.375c-.073 0-.131.033-.138.123l.14.129c.562.046.218-.252-.002-.252zm-.314.258c-.104-.015-.201.042-.254.238.098-.024.254.033.348.104.592.405.219-.296-.094-.342zm3.81.096c.52-.102.369 1.244.202 1.658.315-.215.254.999.152 1.451.172-.231.243.374.05.8.017-.07.417-.13.122.376-.225-.496-.323 1.009-.178.334.397-.638.293-.034.414.248.078.585.34 1.124.418 1.642.367.37-.156.12-.154.62.119-.145.604.203.601.722.04-.823.088-.192.489.022.335.54.586 1.045 1.086 1.49.39.45-.025.134.144.41.414.734 1.373 1.16 2.203 1.352.364.474.91.945 1.65.73-.625.386 1.764.491.956.709-.42.228-.819-.147-1.229-.127-.57-.196-1.47-.797-2.082-.389-.845.53.433-.59-.252-.09-.694.834-.471-.518-1.148-.113-.04-.129-.602-.164-.176-.392-.382-.024-.144-.049-.006-.354-.164-.034-1.075-.002-1.433-.3-.422-.55.073-.327.513-.247-.706.124.243.53.715.305-.212-.09-.455-.548-1.016-.95-.784-.471-1.429-.696-2.242-1.073-.88-.522.197-.186.502.09.878.386.533-.544.024-.786-.558.023-.702-.618-1.149-.582.706.113 1.196-.182.41-.892-.747-.872.312.658-.123.46-.198-.26-.05-.636-.681-.77-.007.24-.087.614-.225.107-.176.03-.377.223-.521-.3.136-.592-.588-.728-.7-1.107.625.4.908.085.465-.351-.305-.533-.347-.115-.517-.041-.613.626-.056-1.08-.329-.588-.273-.008-.116.301-.11.685-.897-.222.217.472.476.854-.41-.428-.34.32-.682-.035-.116-.315-.132-.813-.701-.9.647-.225-.385-.68-.299-.704.37-.337.417-.8.863-.076-.565-.046-.016.933.123.64-.022-.5.231-1.026-.623-1.257-.25.338-.683-.662-.181-.451-.066-.664.778-.273.724-.56.436-.192-.527-.809-.007-1.056.398.242 1.43-.38.736-.466.434-.004.782.186.828-.254.351.076 1.3.378.437-.098.276-.137.86-.253 1.196-.258a.66.66 0 0 1 .265-.138zm29.64.558c-.665 0-1.196.148-1.593.447-.428.31-.64.742-.64 1.3 0 .452.137.813.41 1.081.252.252.754.546 1.506.881.52.227.87.426 1.05.596.165.15.249.335.249.557 0 .505-.363.757-1.09.757-.861 0-1.485-.336-1.871-1.011-.088-.15-.195-.217-.319-.202-.124.01-.185.151-.185.424 0 .634.021.989.062 1.06.067.078.31.162.727.255.484.103.969.156 1.453.156.727 0 1.3-.162 1.72-.484.42-.322.63-.755.63-1.301 0-.494-.154-.889-.461-1.186-.237-.226-.686-.482-1.346-.765-.63-.273-1.027-.475-1.197-.604a.724.724 0 0 1-.288-.601c0-.453.353-.68 1.059-.68.624 0 1.14.331 1.547.996.057.093.17.122.34.086.159-.041.232-.095.217-.162a15.275 15.275 0 0 1-.256-1.252c-.016-.098-.21-.181-.58-.248a6.113 6.113 0 0 0-1.145-.1zm-6.434.031c-.608 0-1.24.175-1.9.52-.63.33-.944.618-.944.865 0 .396.212.574.635.533.37-.03.655-.245.853-.642.198-.397.409-.596.63-.596.779 0 1.151.425 1.12 1.27l-.014.494c-.005.216-.183.359-.533.426-2.04.387-3.06 1.025-3.06 1.916 0 .469.153.84.462 1.113.284.247.636.371 1.06.371.447 0 .894-.105 1.337-.316.443-.211.688-.319.734-.319.062 0 .17.1.325.295.154.196.332.293.533.293.237 0 .553-.109.947-.328.394-.219.592-.382.592-.49 0-.201-.076-.302-.227-.303-.026 0-.117.013-.277.04-.16.025-.267.038-.324.038-.288 0-.431-.167-.426-.502l.031-3.185c.01-.995-.509-1.493-1.555-1.493zm-23.262.237c-.132.037-.337.736-.196.986.312.497.625-1.221.368-.644-.138.735-.28.427-.08-.12-.012-.175-.048-.235-.092-.222zm-4.39.65c.049-.002.136.002.27.016.695-.024.472.385.077.412-.01.026-.362-.085-.215-.182.952.121-.48-.23-.133-.246zm1.747.242c.058.13.156.374.082.483.195.193.861.536.326.064.341-.068-.045-.176-.248-.338-.235-.353-.218-.338-.16-.209zm-2.263.018c.157-.006.319.075.013.262-.324-.163-.171-.256-.013-.262zm4.439.455c-.01-.014-.015-.002-.004.068.118.264.034-.025.004-.068zm-2.365.264c.092.133.34.074.457.203 1.048.434-.094-.281-.457-.203zm-.164.082c-.052.011-.043.08.072.238.072.163.246.177.39.215 1.125.518-.239-.504-.462-.453zm-1.936.088c.171.027.377.12.15.209l-.091-.036c-.366-.166-.23-.201-.059-.173zm1.59.136c-.051.003-.007.08.23.291l.155.159c.78.213-.231-.458-.385-.45zm-.105.21c-.04-.002.321.385.154.378-.58-.423-.343-.124-.016.201.355.527.649-.314.07-.42-.137-.115-.195-.16-.208-.16zm2.457.55a1.2 1.2 0 0 0 .005.283c.097.088.017-.355-.005-.283zm.511.045c-.124 0-.218.885.09 1.07.127.365.263.215.309-.199-.298.006.122-.648-.278-.52-.035-.254-.08-.351-.12-.351zm.862.02c-.023-.05-.077.058-.096.421v.104c.108-.269.118-.476.096-.525zm-5.84.029c.079-.02.53.893.468 1.144-.276-.096-.262-.527-.39-.756-.089-.272-.105-.382-.078-.388zm3.29.045c-.072.203.156.868.294 1.095.352.541.194-.295.58.245-.212-.474.1-.216.054-.418-.098-.204-1.047-1.284-.615-.47.391.973-.245-.121-.312-.452zm-3.476.158c.106.068.39.529.442.785.445.536.27.831.73 1.488-.593-.374-.705-1.266-1.082-1.843-.154-.37-.153-.47-.09-.43zm29.088.121a.26.26 0 0 1 .123.037c.065.041.095.125.09.254l-.016 1.27c0 .16-.16.297-.478.41a2.352 2.352 0 0 1-.797.146c-.644 0-.967-.295-.967-.888 0-.588.621-.993 1.863-1.215a.715.715 0 0 1 .182-.014zM4.557 24.932c.238.075.094.855.453.96.8 1.046-.555.031-1.008-.07.058-.003-.402-.13-.203-.176-.145-.149-.47-.69.271-.328.59.295.639.096.358-.373a.185.185 0 0 1 .129-.013zm-2.703.152c.02-.1.427.556.501.83.224.713.926 1.124.997 1.596.777.448.378 1.179 1.03 1.385.29-.147.32.88.936.666-.343.16.145.35.317.65.389-.053 1.241.857.392.543-.358-.076-.602-.449-.855-.692-.751-.477-1.239-1.275-1.65-2.039-.532-.803-1.17-1.605-1.534-2.544-.106-.244-.141-.362-.134-.395zm5.966.604c-.04.02-.041.138.075.398l.068.111c.094-.307-.077-.543-.143-.51zm-2.7.917c.22.049.553.167.687.194.037.159-.758.134-.063.445-.405-.01-.527-.041.05.313-.226.182.459.326.224.6.697.543-.126.137-.424-.085-.176-.122-.894-.364-.782-.523.846.444.215-.02-.158-.315.682.167-.546-.505.104-.328.193.047-.292-.398.344-.074-.313-.253-.204-.275.017-.227zm4.241 1.706c-.087-.031 0 .306.194.51.414.492.099-.28-.045-.339-.07-.11-.12-.161-.149-.171zm-3.652.484c.23.002.607.106.84.23 1.02.227-.217.5-.625.188l-.172-.037c-.357-.283-.274-.384-.043-.381zm1.219.107c.085-.018.47.14.635.293.489.066.49.29-.05.15-.095-.058-.25-.055-.3-.179-.278-.178-.336-.253-.285-.264zm.65.008c.154-.002.407.041.486.158 1.071.172-.067.247-.384-.035-.312-.071-.256-.12-.102-.123zm0 .604c.116-.026.872.286.328.216l-.158-.05c-.176-.11-.208-.158-.17-.166zm3.604.181c.033.012.068.043.091.104-.28-.005-.193-.14-.091-.104zm-3.6.293c.22.022 1.065.483.316.272l-.115-.045-.13-.06c-.149-.132-.144-.174-.071-.167zM9.4 31.205c.102-.016.936.06.227.053-.213-.033-.26-.048-.227-.053zm-2.216.123c.06.014.155.043.295.094.895.553 1.926.845 2.882 1.271.84.11 1.726.333 2.553.155.69.345 1.406-.09 2.098.222-1.53.298-3.102-.028-4.625-.24-.96-.12-1.818-.52-2.694-.898-.127-.06-.247-.135-.369-.205-.602-.334-.527-.403.059-.075.207.165 1.675.766.976.37-.264-.066-1.596-.788-1.175-.694zm5.566.266c.069.044.07.187.068.369-.46.508-.185-.208-.47.068-.263.21-.2-.125-.059-.205.258-.22.393-.276.461-.232zm3.834.162c.41.035.88.13 1.152.137-.165.347-1.184.028-1.632.119L15.91 32l-.119-.02c.032-.236.382-.26.793-.224zm3.531.111c1.062 0 .07.155-.418.153-.554-.13.251-.127.418-.153zm-6.396.139c.085-.01.114.057-.127.213l-.088.027c-.012-.146.13-.23.215-.24zm-.405.062c.016.025-.019.094-.154.237-.393.025.108-.31.154-.237zm-3.832.11c.096-.024 1.13.274 1.262.246 1.053.39-.628.127-.976-.092-.245-.103-.318-.146-.286-.154zm5.088.05c.003.027-.052.088-.207.2l-.129.084c-.183-.127.33-.362.336-.283z"/></svg>